<svg xmlns="http://www.w3.org/2000/svg" x="0px" y="0px" width="32" height="32" viewBox="0 0 32 32">
<path d="M 5 4 L 5 10 L 7 10 L 7 6 L 9 6 L 9 4 L 5 4 z M 9 6 L 9 8 L 11 8 L 11 6 L 9 6 z M 5 10 L 3 10 L 3 16 L 5 16 L 5 10 z M 3 16 L 1 16 L 1 24 L 3 24 L 3 20 L 13 20 L 13 24 L 15 24 L 15 22 L 17 22 L 17 24 L 19 24 L 19 20 L 29 20 L 29 24 L 31 24 L 31 16 L 29 16 L 29 18 L 17 18 L 17 20 L 15 20 L 15 19 L 15 18 L 3 18 L 3 16 z M 29 16 L 29 10 L 27 10 L 27 16 L 29 16 z M 27 10 L 27 4 L 23 4 L 23 6 L 25 6 L 25 10 L 27 10 z M 23 6 L 21 6 L 21 8 L 23 8 L 23 6 z M 29 24 L 27 24 L 27 26 L 29 26 L 29 24 z M 27 26 L 21 26 L 21 28 L 27 28 L 27 26 z M 21 26 L 21 24 L 19 24 L 19 26 L 21 26 z M 13 24 L 11 24 L 11 26 L 13 26 L 13 24 z M 11 26 L 5 26 L 5 28 L 11 28 L 11 26 z M 5 26 L 5 24 L 3 24 L 3 26 L 5 26 z"></path>
</svg>