<svg xmlns="http://www.w3.org/2000/svg" x="0px" y="0px" width="32" height="32" viewBox="0 0 32 32">
<path d="M 3 5 L 3 27 L 8 27 L 8 25 L 5 25 L 5 7 L 8 7 L 8 5 L 3 5 z M 8 7 L 8 9 L 12 9 L 12 7 L 8 7 z M 12 9 L 12 11 L 20 11 L 20 9 L 12 9 z M 20 9 L 24 9 L 24 7 L 20 7 L 20 9 z M 24 7 L 27 7 L 27 25 L 24 25 L 24 27 L 29 27 L 29 5 L 24 5 L 24 7 z M 24 25 L 24 23 L 20 23 L 20 25 L 24 25 z M 20 23 L 20 21 L 12 21 L 12 23 L 20 23 z M 12 23 L 8 23 L 8 25 L 12 25 L 12 23 z M 9 11 L 9 13 L 11 13 L 11 11 L 9 11 z M 21 11 L 21 13 L 23 13 L 23 11 L 21 11 z M 9 15 L 9 17 L 11 17 L 11 15 L 9 15 z M 21 15 L 21 17 L 23 17 L 23 15 L 21 15 z M 9 19 L 9 21 L 11 21 L 11 19 L 9 19 z M 21 19 L 21 21 L 23 21 L 23 19 L 21 19 z"></path>
</svg>