<svg xmlns="http://www.w3.org/2000/svg" x="0px" y="0px" width="32" height="32" viewBox="0 0 32 32">
<path d="M 9 4 L 9 6 L 21 6 L 21 4 L 9 4 z M 21 6 L 21 8 L 23 8 L 23 6 L 21 6 z M 23 8 L 23 10 L 25 10 L 25 8 L 23 8 z M 25 10 L 25 12 L 22 12 L 22 14 L 29 14 L 29 7 L 27 7 L 27 10 L 25 10 z M 9 6 L 7 6 L 7 8 L 9 8 L 9 6 z M 7 8 L 5 8 L 5 10 L 7 10 L 7 8 z M 5 10 L 3 10 L 3 22 L 5 22 L 5 10 z M 5 22 L 5 24 L 7 24 L 7 22 L 5 22 z M 7 24 L 7 26 L 9 26 L 9 24 L 7 24 z M 9 26 L 9 28 L 21 28 L 21 26 L 9 26 z M 21 26 L 23 26 L 23 24 L 21 24 L 21 26 z M 23 24 L 25 24 L 25 22 L 23 22 L 23 24 z M 25 22 L 27 22 L 27 20 L 25 20 L 25 22 z"></path>
</svg>